<?xml version="1.0"?>
<svg xmlns="http://www.w3.org/2000/svg" viewBox="0 0 64 64" width="512" height="512"><g id="Geography"><path d="M38,11.13a15.993,15.993,0,0,1,6,29.72V39a2.015,2.015,0,0,0-2-2,2.015,2.015,0,0,1-2-2,2.006,2.006,0,0,0-2-2H36a2.006,2.006,0,0,1-2-2V27a2.006,2.006,0,0,1,2-2h4a2.006,2.006,0,0,0,2-2V21a2.006,2.006,0,0,0-2-2H38a2.006,2.006,0,0,1-2-2V11A14.713,14.713,0,0,1,38,11.13Z" style="fill:#9cdd05"/><polygon points="45 57 45 61 27 61 27 57 34 57 38 57 45 57" style="fill:#ff7956"/><path d="M44,39v1.85a15.873,15.873,0,0,1-6,2.03A16.524,16.524,0,0,1,36,43V39a2.006,2.006,0,0,0-2-2H32a2.006,2.006,0,0,1-2-2V29a2.006,2.006,0,0,1-2-2V25a2.015,2.015,0,0,1,2-2,2.006,2.006,0,0,0,2-2V19a2.015,2.015,0,0,0-2-2,2.006,2.006,0,0,1-2-2V13.16a15.7,15.7,0,0,1,6-2.03A14.713,14.713,0,0,1,36,11v6a2.006,2.006,0,0,0,2,2h2a2.006,2.006,0,0,1,2,2v2a2.006,2.006,0,0,1-2,2H36a2.006,2.006,0,0,0-2,2v4a2.006,2.006,0,0,0,2,2h2a2.006,2.006,0,0,1,2,2,2.015,2.015,0,0,0,2,2,2.015,2.015,0,0,1,2,2Z" style="fill:#46f8ff"/><path d="M38,42.88V57H34V50.91a24.019,24.019,0,0,1-22-23.5C11.78,13.99,23.12,3,36.55,3A1.451,1.451,0,0,1,38,4.45v6.68a15.45,15.45,0,0,0-4,0V7.1a20,20,0,0,0,0,39.8V42.88a16.727,16.727,0,0,0,4,0Z" style="fill:#fee9ab"/><path d="M36,39v4a16.524,16.524,0,0,1-2-.12,15.993,15.993,0,0,1-6-29.72V15a2.006,2.006,0,0,0,2,2,2.015,2.015,0,0,1,2,2v2a2.006,2.006,0,0,1-2,2,2.015,2.015,0,0,0-2,2v2a2.006,2.006,0,0,0,2,2v6a2.006,2.006,0,0,0,2,2h2A2.006,2.006,0,0,1,36,39Z" style="fill:#b2fa09"/><path d="M53,27A17,17,0,0,0,39,10.288V4.45A2.453,2.453,0,0,0,36.55,2,25.951,25.951,0,0,0,18.179,9.736,24.524,24.524,0,0,0,11,27.427,24.894,24.894,0,0,0,33,51.815V56H27a1,1,0,0,0-1,1v4a1,1,0,0,0,1,1H45a1,1,0,0,0,1-1V57a1,1,0,0,0-1-1H39V43.72A17.018,17.018,0,0,0,53,27ZM36,34h2a1,1,0,0,1,1,1,3.015,3.015,0,0,0,3,3,.978.978,0,0,1,.713.306A.965.965,0,0,1,43,39v1.268a14.882,14.882,0,0,1-5.12,1.619c-.293.036-.586.061-.88.08V39a3,3,0,0,0-3-3H32a1,1,0,0,1-1-1V29a1,1,0,0,0-1-1,1,1,0,0,1-1-1V25a.978.978,0,0,1,.306-.712A.957.957,0,0,1,30,24a3,3,0,0,0,3-3V19a3.015,3.015,0,0,0-3-3,1,1,0,0,1-1-1V13.739a14.883,14.883,0,0,1,5.135-1.618c.284-.039.571-.067.865-.087V17a3,3,0,0,0,3,3h2a1,1,0,0,1,1,1v2a1,1,0,0,1-1,1H36a3,3,0,0,0-3,3v4A3,3,0,0,0,36,34ZM27,15.018A3,3,0,0,0,30,18a.978.978,0,0,1,.713.306A.965.965,0,0,1,31,19v2a1,1,0,0,1-1,1,3.017,3.017,0,0,0-3,3v2a3.006,3.006,0,0,0,2,2.829V35a3,3,0,0,0,3,3h2a1,1,0,0,1,1,1v2.967c-.293-.019-.585-.044-.876-.079A14.99,14.99,0,0,1,27,15.018Zm6-4.73A16.979,16.979,0,0,0,33,43.72v2.043A19,19,0,0,1,33,8.237ZM51,27a15.013,15.013,0,0,1-6,11.986A3.013,3.013,0,0,0,42,36a.978.978,0,0,1-.713-.306A.965.965,0,0,1,41,35a3,3,0,0,0-3-3H36a1,1,0,0,1-1-1V27a1,1,0,0,1,1-1h4a3,3,0,0,0,3-3V21a3,3,0,0,0-3-3H38a1,1,0,0,1-1-1V12.034c.3.021.587.049.877.088A15,15,0,0,1,51,27ZM44,60H28V58H44Zm-9-4V50.91a1,1,0,0,0-.918-1A22.9,22.9,0,0,1,13,27.394a22.533,22.533,0,0,1,6.6-16.255A23.936,23.936,0,0,1,36.55,4a.451.451,0,0,1,.45.45v5.581a16.682,16.682,0,0,0-2,0V7.1a1,1,0,0,0-1.1-.995,21,21,0,0,0,0,41.79c.034,0,.067,0,.1,0a1,1,0,0,0,1-1V43.97c.331.019.662.03,1,.03s.669-.011,1-.03V56Z"/></g></svg>
